<svg width="1200" height="800" viewBox="0 0 1200 800" fill="none" xmlns="http://www.w3.org/2000/svg">
  <rect width="1200" height="800" rx="36" fill="#F0FDFA"/>
  <rect x="88" y="82" width="1024" height="636" rx="36" fill="white"/>
  <rect x="150" y="138" width="330" height="462" rx="28" fill="#0F766E"/>
  <rect x="204" y="198" width="220" height="22" rx="11" fill="#99F6E4"/>
  <rect x="204" y="246" width="170" height="32" rx="16" fill="#CCFBF1"/>
  <path d="M250 360C250 319.131 283.131 286 324 286C364.869 286 398 319.131 398 360V430H250V360Z" fill="#5EEAD4"/>
  <rect x="560" y="170" width="402" height="28" rx="14" fill="#A7F3D0"/>
  <rect x="560" y="228" width="476" height="40" rx="20" fill="#134E4A"/>
  <rect x="560" y="294" width="380" height="18" rx="9" fill="#99F6E4"/>
  <rect x="560" y="336" width="330" height="18" rx="9" fill="#D1FAE5"/>
  <rect x="560" y="430" width="436" height="130" rx="24" fill="#ECFEFF"/>
  <rect x="600" y="468" width="150" height="18" rx="9" fill="#5EEAD4"/>
  <rect x="600" y="505" width="318" height="14" rx="7" fill="#99F6E4"/>
</svg>