<svg width="1200" height="800" viewBox="0 0 1200 800" fill="none" xmlns="http://www.w3.org/2000/svg">
  <rect width="1200" height="800" rx="36" fill="#ECFDF5"/>
  <rect x="70" y="70" width="1060" height="660" rx="32" fill="white"/>
  <circle cx="230" cy="240" r="92" fill="#CCFBF1"/>
  <path d="M210 175H250V215H290V255H250V295H210V255H170V215H210V175Z" fill="#0F766E"/>
  <rect x="390" y="170" width="330" height="26" rx="13" fill="#99F6E4"/>
  <rect x="390" y="220" width="460" height="34" rx="17" fill="#134E4A"/>
  <rect x="390" y="278" width="380" height="18" rx="9" fill="#A7F3D0"/>
  <rect x="390" y="320" width="310" height="18" rx="9" fill="#D1FAE5"/>
  <rect x="160" y="430" width="880" height="180" rx="24" fill="#F0FDFA"/>
  <rect x="200" y="470" width="180" height="100" rx="20" fill="#14B8A6"/>
  <rect x="420" y="470" width="180" height="100" rx="20" fill="#99F6E4"/>
  <rect x="640" y="470" width="180" height="100" rx="20" fill="#5EEAD4"/>
  <rect x="860" y="470" width="140" height="100" rx="20" fill="#0F766E"/>
</svg>